<!--
{
  "height": 0,
  "id": "venn-0",
  "width": 0
}
-->
<svg xmlns="http://www.w3.org/2000/svg" width="600" height="350">
  <g class="venn-area venn-circle" data-venn-sets="A">
    <path
      d="&#10;M 184.16021264966827 175 &#10;m -160 0 &#10;a 160 160 0 1 0 320 0 &#10;a 160 160 0 1 0 -320 0"
      style="fill-opacity: 0.25; fill: rgb(31, 119, 180)"
    />
    <text
      class="label"
      text-anchor="middle"
      dy=".35em"
      x="140"
      y="174"
      style="fill: rgb(31, 119, 180)"
    >
      <tspan x="140" y="174" dy="0.35em">A</tspan>
    </text>
  </g>
  <g class="venn-area venn-circle" data-venn-sets="B">
    <path
      d="&#10;M 415.8397873503318 175 &#10;m -160 0 &#10;a 160 160 0 1 0 320 0 &#10;a 160 160 0 1 0 -320 0"
      style="fill-opacity: 0.25; fill: rgb(255, 127, 14)"
    />
    <text
      class="label"
      text-anchor="middle"
      dy=".35em"
      x="460"
      y="175"
      style="fill: rgb(255, 127, 14)"
    >
      <tspan x="460" y="175" dy="0.35em">B</tspan>
    </text>
  </g>
  <g class="venn-area venn-intersection" data-venn-sets="A_B">
    <path
      d="&#10;M 300 285.3682185533042 &#10;A 160 160 0 0 1 300 64.63178144669581 &#10;A 160 160 0 0 1 300 285.3682185533042"
      style="fill-opacity: 0"
    />
    <text
      class="label"
      text-anchor="middle"
      dy=".35em"
      x="300"
      y="174"
      style="fill: rgb(68, 68, 68)"
    >
      <tspan x="300" y="174" dy="0.35em" />
    </text>
  </g>
</svg>
