<!--
{
  "height": 350,
  "id": "venn-0",
  "width": 600
}
-->
<svg xmlns="http://www.w3.org/2000/svg" width="600" height="350">
  <g class="venn-area venn-circle" data-venn-sets="0">
    <path
      d="&#10;M 281.00437405999435 193.03299450366177 &#10;m -112.18720481600093 0 &#10;a 112.18720481600093 112.18720481600093 0 1 0 224.37440963200186 0 &#10;a 112.18720481600093 112.18720481600093 0 1 0 -224.37440963200186 0"
      style="fill-opacity: 0.25; fill: rgb(31, 119, 180)"
    />
    <text
      class="label"
      text-anchor="middle"
      dy=".35em"
      x="283"
      y="187"
      style="fill: rgb(31, 119, 180)"
    >
      <tspan x="283" y="187" dy="0.35em">Radiohead</tspan>
    </text>
  </g>
  <g class="venn-area venn-circle" data-venn-sets="1">
    <path
      d="&#10;M 264.6429607144695 284.5792409154127 &#10;m -30.243049195978898 0 &#10;a 30.243049195978898 30.243049195978898 0 1 0 60.486098391957796 0 &#10;a 30.243049195978898 30.243049195978898 0 1 0 -60.486098391957796 0"
      style="fill-opacity: 0.25; fill: rgb(255, 127, 14)"
    />
    <text
      class="label"
      text-anchor="middle"
      dy=".35em"
      x="260"
      y="308"
      style="fill: rgb(255, 127, 14)"
    >
      <tspan x="260" y="308" dy="-0.20000000000000007em">Thom</tspan>
      <tspan x="260" y="308" dy="0.9em">Yorke</tspan>
    </text>
  </g>
  <g class="venn-area venn-circle" data-venn-sets="2">
    <path
      d="&#10;M 161.7223190406022 181.83286577410522 &#10;m -35.56420599736866 0 &#10;a 35.56420599736866 35.56420599736866 0 1 0 71.12841199473732 0 &#10;a 35.56420599736866 35.56420599736866 0 1 0 -71.12841199473732 0"
      style="fill-opacity: 0.25; fill: rgb(44, 160, 44)"
    />
    <text
      class="label"
      text-anchor="middle"
      dy=".35em"
      x="147"
      y="180"
      style="fill: rgb(44, 160, 44)"
    >
      <tspan x="147" y="180" dy="-0.20000000000000007em">John</tspan>
      <tspan x="147" y="180" dy="0.9em">Lennon</tspan>
    </text>
  </g>
  <g class="venn-area venn-circle" data-venn-sets="3">
    <path
      d="&#10;M 417.80662992506115 193.03299450366177 &#10;m -66.34779582835147 0 &#10;a 66.34779582835147 66.34779582835147 0 1 0 132.69559165670293 0 &#10;a 66.34779582835147 66.34779582835147 0 1 0 -132.69559165670293 0"
      style="fill-opacity: 0.25; fill: rgb(214, 39, 40)"
    />
    <text
      class="label"
      text-anchor="middle"
      dy=".35em"
      x="443"
      y="201"
      style="fill: rgb(214, 39, 40)"
    >
      <tspan x="443" y="201" dy="-0.20000000000000007em">Kanye</tspan>
      <tspan x="443" y="201" dy="0.9em">West</tspan>
    </text>
  </g>
  <g class="venn-area venn-circle" data-venn-sets="4">
    <path
      d="&#10;M 401.45110634343655 115.89707567935008 &#10;m -55.68454243154199 0 &#10;a 55.68454243154199 55.68454243154199 0 1 0 111.36908486308398 0 &#10;a 55.68454243154199 55.68454243154199 0 1 0 -111.36908486308398 0"
      style="fill-opacity: 0.25; fill: rgb(148, 103, 189)"
    />
    <text
      class="label"
      text-anchor="middle"
      dy=".35em"
      x="403"
      y="94"
      style="fill: rgb(148, 103, 189)"
    >
      <tspan x="403" y="94" dy="0.35em">Eminem</tspan>
    </text>
  </g>
  <g class="venn-area venn-circle" data-venn-sets="5">
    <path
      d="&#10;M 323.87115438311037 65.76713589120138 &#10;m -50.76713589120136 0 &#10;a 50.76713589120136 50.76713589120136 0 1 0 101.53427178240273 0 &#10;a 50.76713589120136 50.76713589120136 0 1 0 -101.53427178240273 0"
      style="fill-opacity: 0.25; fill: rgb(140, 86, 75)"
    />
    <text
      class="label"
      text-anchor="middle"
      dy=".35em"
      x="328"
      y="52"
      style="fill: rgb(140, 86, 75)"
    >
      <tspan x="328" y="52" dy="-0.20000000000000007em">Elvis</tspan>
      <tspan x="328" y="52" dy="0.9em">Presley</tspan>
    </text>
  </g>
  <g class="venn-area venn-circle" data-venn-sets="6">
    <path
      d="&#10;M 325.9870014336483 293.0538713244831 &#10;m -41.94612867551688 0 &#10;a 41.94612867551688 41.94612867551688 0 1 0 83.89225735103376 0 &#10;a 41.94612867551688 41.94612867551688 0 1 0 -83.89225735103376 0"
      style="fill-opacity: 0.25; fill: rgb(227, 119, 194)"
    />
    <text
      class="label"
      text-anchor="middle"
      dy=".35em"
      x="335"
      y="313"
      style="fill: rgb(227, 119, 194)"
    >
      <tspan x="335" y="313" dy="-0.7500000000000001em">Explosions</tspan>
      <tspan x="335" y="313" dy="0.35em">in the</tspan>
      <tspan x="335" y="313" dy="1.4500000000000002em">Sky</tspan>
    </text>
  </g>
  <g class="venn-area venn-circle" data-venn-sets="7">
    <path
      d="&#10;M 179.26527234956504 117.8464084699335 &#10;m -38.825589321342484 0 &#10;a 38.825589321342484 38.825589321342484 0 1 0 77.65117864268497 0 &#10;a 38.825589321342484 38.825589321342484 0 1 0 -77.65117864268497 0"
      style="fill-opacity: 0.25; fill: rgb(127, 127, 127)"
    />
    <text
      class="label"
      text-anchor="middle"
      dy=".35em"
      x="180"
      y="102"
      style="fill: rgb(127, 127, 127)"
    >
      <tspan x="180" y="102" dy="0.35em">Bach</tspan>
    </text>
  </g>
  <g class="venn-area venn-circle" data-venn-sets="8">
    <path
      d="&#10;M 141.22673817962337 130.44115984203665 &#10;m -25.381163933035925 0 &#10;a 25.381163933035925 25.381163933035925 0 1 0 50.76232786607185 0 &#10;a 25.381163933035925 25.381163933035925 0 1 0 -50.76232786607185 0"
      style="fill-opacity: 0.25; fill: rgb(188, 189, 34)"
    />
    <text
      class="label"
      text-anchor="middle"
      dy=".35em"
      x="129"
      y="134"
      style="fill: rgb(188, 189, 34)"
    >
      <tspan x="129" y="134" dy="0.35em">Mozart</tspan>
    </text>
  </g>
  <g class="venn-area venn-circle" data-venn-sets="9">
    <path
      d="&#10;M 211.77721704205482 288.47125170888273 &#10;m -27.926885072384156 0 &#10;a 27.926885072384156 27.926885072384156 0 1 0 55.85377014476831 0 &#10;a 27.926885072384156 27.926885072384156 0 1 0 -55.85377014476831 0"
      style="fill-opacity: 0.25; fill: rgb(23, 190, 207)"
    />
    <text
      class="label"
      text-anchor="middle"
      dy=".35em"
      x="205"
      y="297"
      style="fill: rgb(23, 190, 207)"
    >
      <tspan x="205" y="297" dy="-0.20000000000000007em">Philip</tspan>
      <tspan x="205" y="297" dy="0.9em">Glass</tspan>
    </text>
  </g>
  <g class="venn-area venn-circle" data-venn-sets="10">
    <path
      d="&#10;M 173.82142594966598 254.14812341739807 &#10;m -25.942334111841053 0 &#10;a 25.942334111841053 25.942334111841053 0 1 0 51.884668223682105 0 &#10;a 25.942334111841053 25.942334111841053 0 1 0 -51.884668223682105 0"
      style="fill-opacity: 0.25; fill: rgb(31, 119, 180)"
    />
    <text
      class="label"
      text-anchor="middle"
      dy=".35em"
      x="167"
      y="257"
      style="fill: rgb(31, 119, 180)"
    >
      <tspan x="167" y="257" dy="-0.20000000000000007em">St.</tspan>
      <tspan x="167" y="257" dy="0.9em">Germain</tspan>
    </text>
  </g>
  <g class="venn-area venn-circle" data-venn-sets="11">
    <path
      d="&#10;M 245.62608864826328 83.4827970557539 &#10;m -42.201381307260526 0 &#10;a 42.201381307260526 42.201381307260526 0 1 0 84.40276261452105 0 &#10;a 42.201381307260526 42.201381307260526 0 1 0 -84.40276261452105 0"
      style="fill-opacity: 0.25; fill: rgb(255, 127, 14)"
    />
    <text
      class="label"
      text-anchor="middle"
      dy=".35em"
      x="239"
      y="64"
      style="fill: rgb(255, 127, 14)"
    >
      <tspan x="239" y="64" dy="0.35em">Morrissey</tspan>
    </text>
  </g>
  <g class="venn-area venn-circle" data-venn-sets="12">
    <path
      d="&#10;M 388.50755895437663 254.85712091160246 &#10;m -37.06746580529859 0 &#10;a 37.06746580529859 37.06746580529859 0 1 0 74.13493161059718 0 &#10;a 37.06746580529859 37.06746580529859 0 1 0 -74.13493161059718 0"
      style="fill-opacity: 0.25; fill: rgb(44, 160, 44)"
    />
    <text
      class="label"
      text-anchor="middle"
      dy=".35em"
      x="385"
      y="272"
      style="fill: rgb(44, 160, 44)"
    >
      <tspan x="385" y="272" dy="0.35em">Outkast</tspan>
    </text>
  </g>
  <g class="venn-area venn-intersection" data-venn-sets="0_1">
    <path
      d="&#10;M 236.67666845268596 296.09134418974566 &#10;A 30.243049195978898 30.243049195978898 0 1 1 286.89037874536956 305.0656855954636 &#10;A 112.18720481600093 112.18720481600093 0 0 1 236.67666845268596 296.09134418974566"
      style="fill-opacity: 0"
    />
    <text
      class="label"
      text-anchor="middle"
      dy=".35em"
      x="262"
      y="278"
      style="fill: rgb(68, 68, 68)"
    >
      <tspan x="262" y="278" dy="0.35em" />
    </text>
  </g>
  <g class="venn-area venn-intersection" data-venn-sets="0_2">
    <path
      d="&#10;M 171.2155925561382 216.1066240474912 &#10;A 112.18720481600093 112.18720481600093 0 0 1 177.42976028279335 149.92535822734772 &#10;A 35.56420599736866 35.56420599736866 0 0 1 171.2155925561382 216.1066240474912"
      style="fill-opacity: 0"
    />
    <text
      class="label"
      text-anchor="middle"
      dy=".35em"
      x="183"
      y="183"
      style="fill: rgb(68, 68, 68)"
    >
      <tspan x="183" y="183" dy="0.35em" />
    </text>
  </g>
  <g class="venn-area venn-intersection" data-venn-sets="0_3">
    <path
      d="&#10;M 379.3170661746961 247.07541759503692 &#10;A 66.34779582835147 66.34779582835147 0 0 1 379.3170661746961 138.9905714122866 &#10;A 112.18720481600093 112.18720481600093 0 0 1 379.3170661746961 247.07541759503692"
      style="fill-opacity: 0"
    />
    <text
      class="label"
      text-anchor="middle"
      dy=".35em"
      x="372"
      y="193"
      style="fill: rgb(68, 68, 68)"
    >
      <tspan x="372" y="193" dy="0.35em" />
    </text>
  </g>
  <g class="venn-area venn-intersection" data-venn-sets="0_4">
    <path
      d="&#10;M 347.380314427004 102.58851725478539 &#10;A 112.18720481600093 112.18720481600093 0 0 1 390.921136762629 170.5769440628554 &#10;A 55.68454243154199 55.68454243154199 0 0 1 347.380314427004 102.58851725478539"
      style="fill-opacity: 0"
    />
    <text
      class="label"
      text-anchor="middle"
      dy=".35em"
      x="363"
      y="136"
      style="fill: rgb(68, 68, 68)"
    >
      <tspan x="363" y="136" dy="0.35em" />
    </text>
  </g>
  <g class="venn-area venn-intersection" data-venn-sets="0_5">
    <path
      d="&#10;M 275.4382066282066 80.98395745046507 &#10;A 112.18720481600093 112.18720481600093 0 0 1 353.2276914034123 107.18568029792037 &#10;A 50.76713589120136 50.76713589120136 0 0 1 275.4382066282066 80.98395745046507"
      style="fill-opacity: 0"
    />
    <text
      class="label"
      text-anchor="middle"
      dy=".35em"
      x="312"
      y="100"
      style="fill: rgb(68, 68, 68)"
    >
      <tspan x="312" y="100" dy="0.35em" />
    </text>
  </g>
  <g class="venn-area venn-intersection" data-venn-sets="0_6">
    <path
      d="&#10;M 285.8129274413635 305.1171001511882 &#10;A 41.94612867551688 41.94612867551688 0 0 1 361.6689458442629 271.0021921607362 &#10;A 112.18720481600093 112.18720481600093 0 0 1 285.8129274413635 305.1171001511882"
      style="fill-opacity: 0"
    />
    <text
      class="label"
      text-anchor="middle"
      dy=".35em"
      x="317"
      y="275"
      style="fill: rgb(68, 68, 68)"
    >
      <tspan x="317" y="275" dy="0.35em" />
    </text>
  </g>
  <g class="venn-area venn-intersection" data-venn-sets="0_7">
    <path
      d="&#10;M 174.95560629464327 156.43206856075736 &#10;A 112.18720481600093 112.18720481600093 0 0 1 214.8860036698516 102.40005335432451 &#10;A 38.825589321342484 38.825589321342484 0 0 1 174.95560629464327 156.43206856075736"
      style="fill-opacity: 0"
    />
    <text
      class="label"
      text-anchor="middle"
      dy=".35em"
      x="200"
      y="133"
      style="fill: rgb(68, 68, 68)"
    >
      <tspan x="200" y="133" dy="0.35em" />
    </text>
  </g>
  <g class="venn-area venn-intersection" data-venn-sets="0_8">
    <path d="M 0 0" style="fill-opacity: 0" />
    <text
      class="label"
      text-anchor="middle"
      dy=".35em"
      x="0"
      y="-1000"
      style="fill: rgb(68, 68, 68)"
    >
      <tspan x="0" y="-1000" dy="0.35em" />
    </text>
  </g>
  <g class="venn-area venn-intersection" data-venn-sets="0_9">
    <path
      d="&#10;M 195.56157189318088 265.7344145882111 &#10;A 27.926885072384156 27.926885072384156 0 0 1 238.42510869552052 296.8259378353212 &#10;A 112.18720481600093 112.18720481600093 0 0 1 195.56157189318088 265.7344145882111"
      style="fill-opacity: 0"
    />
    <text
      class="label"
      text-anchor="middle"
      dy=".35em"
      x="221"
      y="274"
      style="fill: rgb(68, 68, 68)"
    >
      <tspan x="221" y="274" dy="0.35em" />
    </text>
  </g>
  <g class="venn-area venn-intersection" data-venn-sets="0_10">
    <path
      d="&#10;M 174.47615206838717 228.21405252831755 &#10;A 25.942334111841053 25.942334111841053 0 0 1 196.4735252762916 266.792770319035 &#10;A 112.18720481600093 112.18720481600093 0 0 1 174.47615206838717 228.21405252831755"
      style="fill-opacity: 0"
    />
    <text
      class="label"
      text-anchor="middle"
      dy=".35em"
      x="189"
      y="244"
      style="fill: rgb(68, 68, 68)"
    >
      <tspan x="189" y="244" dy="0.35em" />
    </text>
  </g>
  <g class="venn-area venn-intersection" data-venn-sets="0_11">
    <path
      d="&#10;M 210.0294404951751 106.15073089424126 &#10;A 112.18720481600093 112.18720481600093 0 0 1 287.75724392806404 81.04921142337707 &#10;A 42.201381307260526 42.201381307260526 0 0 1 210.0294404951751 106.15073089424126"
      style="fill-opacity: 0"
    />
    <text
      class="label"
      text-anchor="middle"
      dy=".35em"
      x="252"
      y="104"
      style="fill: rgb(68, 68, 68)"
    >
      <tspan x="252" y="104" dy="0.35em" />
    </text>
  </g>
  <g class="venn-area venn-intersection" data-venn-sets="0_12">
    <path
      d="&#10;M 357.47090397174424 275.1234246869834 &#10;A 37.06746580529859 37.06746580529859 0 0 1 390.41480854539367 217.8387549262629 &#10;A 112.18720481600093 112.18720481600093 0 0 1 357.47090397174424 275.1234246869834"
      style="fill-opacity: 0"
    />
    <text
      class="label"
      text-anchor="middle"
      dy=".35em"
      x="363"
      y="249"
      style="fill: rgb(68, 68, 68)"
    >
      <tspan x="363" y="249" dy="0.35em" />
    </text>
  </g>
  <g class="venn-area venn-intersection" data-venn-sets="1_2">
    <path d="M 0 0" style="fill-opacity: 0" />
    <text
      class="label"
      text-anchor="middle"
      dy=".35em"
      x="0"
      y="-1000"
      style="fill: rgb(68, 68, 68)"
    >
      <tspan x="0" y="-1000" dy="0.35em" />
    </text>
  </g>
  <g class="venn-area venn-intersection" data-venn-sets="1_3">
    <path d="M 0 0" style="fill-opacity: 0" />
    <text
      class="label"
      text-anchor="middle"
      dy=".35em"
      x="0"
      y="-1000"
      style="fill: rgb(68, 68, 68)"
    >
      <tspan x="0" y="-1000" dy="0.35em" />
    </text>
  </g>
  <g class="venn-area venn-intersection" data-venn-sets="1_4">
    <path d="M 0 0" style="fill-opacity: 0" />
    <text
      class="label"
      text-anchor="middle"
      dy=".35em"
      x="0"
      y="-1000"
      style="fill: rgb(68, 68, 68)"
    >
      <tspan x="0" y="-1000" dy="0.35em" />
    </text>
  </g>
  <g class="venn-area venn-intersection" data-venn-sets="1_5">
    <path d="M 0 0" style="fill-opacity: 0" />
    <text
      class="label"
      text-anchor="middle"
      dy=".35em"
      x="0"
      y="-1000"
      style="fill: rgb(68, 68, 68)"
    >
      <tspan x="0" y="-1000" dy="0.35em" />
    </text>
  </g>
  <g class="venn-area venn-intersection" data-venn-sets="1_6">
    <path
      d="&#10;M 286.0651213837575 305.9271461271568 &#10;A 41.94612867551688 41.94612867551688 0 0 1 291.05067084157304 269.83899429219525 &#10;A 30.243049195978898 30.243049195978898 0 0 1 286.0651213837575 305.9271461271568"
      style="fill-opacity: 0"
    />
    <text
      class="label"
      text-anchor="middle"
      dy=".35em"
      x="286"
      y="305"
      style="fill: rgb(68, 68, 68)"
    >
      <tspan x="286" y="305" dy="0.35em" />
    </text>
  </g>
  <g class="venn-area venn-intersection" data-venn-sets="1_7">
    <path d="M 0 0" style="fill-opacity: 0" />
    <text
      class="label"
      text-anchor="middle"
      dy=".35em"
      x="0"
      y="-1000"
      style="fill: rgb(68, 68, 68)"
    >
      <tspan x="0" y="-1000" dy="0.35em" />
    </text>
  </g>
  <g class="venn-area venn-intersection" data-venn-sets="1_8">
    <path d="M 0 0" style="fill-opacity: 0" />
    <text
      class="label"
      text-anchor="middle"
      dy=".35em"
      x="0"
      y="-1000"
      style="fill: rgb(68, 68, 68)"
    >
      <tspan x="0" y="-1000" dy="0.35em" />
    </text>
  </g>
  <g class="venn-area venn-intersection" data-venn-sets="1_9">
    <path
      d="&#10;M 236.06413756699106 274.6851572198121 &#10;A 27.926885072384156 27.926885072384156 0 0 1 237.8212265409199 298.55195005121885 &#10;A 30.243049195978898 30.243049195978898 0 0 1 236.06413756699106 274.6851572198121"
      style="fill-opacity: 0"
    />
    <text
      class="label"
      text-anchor="middle"
      dy=".35em"
      x="237"
      y="297"
      style="fill: rgb(68, 68, 68)"
    >
      <tspan x="237" y="297" dy="0.35em" />
    </text>
  </g>
  <g class="venn-area venn-intersection" data-venn-sets="1_10">
    <path d="M 0 0" style="fill-opacity: 0" />
    <text
      class="label"
      text-anchor="middle"
      dy=".35em"
      x="0"
      y="-1000"
      style="fill: rgb(68, 68, 68)"
    >
      <tspan x="0" y="-1000" dy="0.35em" />
    </text>
  </g>
  <g class="venn-area venn-intersection" data-venn-sets="1_11">
    <path d="M 0 0" style="fill-opacity: 0" />
    <text
      class="label"
      text-anchor="middle"
      dy=".35em"
      x="0"
      y="-1000"
      style="fill: rgb(68, 68, 68)"
    >
      <tspan x="0" y="-1000" dy="0.35em" />
    </text>
  </g>
  <g class="venn-area venn-intersection" data-venn-sets="1_12">
    <path d="M 0 0" style="fill-opacity: 0" />
    <text
      class="label"
      text-anchor="middle"
      dy=".35em"
      x="0"
      y="-1000"
      style="fill: rgb(68, 68, 68)"
    >
      <tspan x="0" y="-1000" dy="0.35em" />
    </text>
  </g>
  <g class="venn-area venn-intersection" data-venn-sets="2_3">
    <path d="M 0 0" style="fill-opacity: 0" />
    <text
      class="label"
      text-anchor="middle"
      dy=".35em"
      x="0"
      y="-1000"
      style="fill: rgb(68, 68, 68)"
    >
      <tspan x="0" y="-1000" dy="0.35em" />
    </text>
  </g>
  <g class="venn-area venn-intersection" data-venn-sets="2_4">
    <path d="M 0 0" style="fill-opacity: 0" />
    <text
      class="label"
      text-anchor="middle"
      dy=".35em"
      x="0"
      y="-1000"
      style="fill: rgb(68, 68, 68)"
    >
      <tspan x="0" y="-1000" dy="0.35em" />
    </text>
  </g>
  <g class="venn-area venn-intersection" data-venn-sets="2_5">
    <path d="M 0 0" style="fill-opacity: 0" />
    <text
      class="label"
      text-anchor="middle"
      dy=".35em"
      x="0"
      y="-1000"
      style="fill: rgb(68, 68, 68)"
    >
      <tspan x="0" y="-1000" dy="0.35em" />
    </text>
  </g>
  <g class="venn-area venn-intersection" data-venn-sets="2_6">
    <path d="M 0 0" style="fill-opacity: 0" />
    <text
      class="label"
      text-anchor="middle"
      dy=".35em"
      x="0"
      y="-1000"
      style="fill: rgb(68, 68, 68)"
    >
      <tspan x="0" y="-1000" dy="0.35em" />
    </text>
  </g>
  <g class="venn-area venn-intersection" data-venn-sets="2_7">
    <path
      d="&#10;M 153.8073694368041 147.16059557164215 &#10;A 35.56420599736866 35.56420599736866 0 0 1 186.21335722829565 156.04523702091785 &#10;A 38.825589321342484 38.825589321342484 0 0 1 153.8073694368041 147.16059557164215"
      style="fill-opacity: 0"
    />
    <text
      class="label"
      text-anchor="middle"
      dy=".35em"
      x="170"
      y="151"
      style="fill: rgb(68, 68, 68)"
    >
      <tspan x="170" y="151" dy="0.35em" />
    </text>
  </g>
  <g class="venn-area venn-intersection" data-venn-sets="2_8">
    <path
      d="&#10;M 137.73028759659374 155.58033874501749 &#10;A 35.56420599736866 35.56420599736866 0 0 1 161.0635866970172 146.27476093255345 &#10;A 25.381163933035925 25.381163933035925 0 0 1 137.73028759659374 155.58033874501749"
      style="fill-opacity: 0"
    />
    <text
      class="label"
      text-anchor="middle"
      dy=".35em"
      x="149"
      y="151"
      style="fill: rgb(68, 68, 68)"
    >
      <tspan x="149" y="151" dy="0.35em" />
    </text>
  </g>
  <g class="venn-area venn-intersection" data-venn-sets="2_9">
    <path d="M 0 0" style="fill-opacity: 0" />
    <text
      class="label"
      text-anchor="middle"
      dy=".35em"
      x="0"
      y="-1000"
      style="fill: rgb(68, 68, 68)"
    >
      <tspan x="0" y="-1000" dy="0.35em" />
    </text>
  </g>
  <g class="venn-area venn-intersection" data-venn-sets="2_10">
    <path d="M 0 0" style="fill-opacity: 0" />
    <text
      class="label"
      text-anchor="middle"
      dy=".35em"
      x="0"
      y="-1000"
      style="fill: rgb(68, 68, 68)"
    >
      <tspan x="0" y="-1000" dy="0.35em" />
    </text>
  </g>
  <g class="venn-area venn-intersection" data-venn-sets="2_11">
    <path d="M 0 0" style="fill-opacity: 0" />
    <text
      class="label"
      text-anchor="middle"
      dy=".35em"
      x="0"
      y="-1000"
      style="fill: rgb(68, 68, 68)"
    >
      <tspan x="0" y="-1000" dy="0.35em" />
    </text>
  </g>
  <g class="venn-area venn-intersection" data-venn-sets="2_12">
    <path d="M 0 0" style="fill-opacity: 0" />
    <text
      class="label"
      text-anchor="middle"
      dy=".35em"
      x="0"
      y="-1000"
      style="fill: rgb(68, 68, 68)"
    >
      <tspan x="0" y="-1000" dy="0.35em" />
    </text>
  </g>
  <g class="venn-area venn-intersection" data-venn-sets="3_4">
    <path
      d="&#10;M 362.7802842875804 155.96371750686677 &#10;A 66.34779582835147 66.34779582835147 0 0 1 453.054375563977 136.82243999069777 &#10;A 55.68454243154199 55.68454243154199 0 0 1 362.7802842875804 155.96371750686677"
      style="fill-opacity: 0"
    />
    <text
      class="label"
      text-anchor="middle"
      dy=".35em"
      x="408"
      y="149"
      style="fill: rgb(68, 68, 68)"
    >
      <tspan x="408" y="149" dy="0.35em" />
    </text>
  </g>
  <g class="venn-area venn-intersection" data-venn-sets="3_5">
    <path d="M 0 0" style="fill-opacity: 0" />
    <text
      class="label"
      text-anchor="middle"
      dy=".35em"
      x="0"
      y="-1000"
      style="fill: rgb(68, 68, 68)"
    >
      <tspan x="0" y="-1000" dy="0.35em" />
    </text>
  </g>
  <g class="venn-area venn-intersection" data-venn-sets="3_6">
    <path d="M 0 0" style="fill-opacity: 0" />
    <text
      class="label"
      text-anchor="middle"
      dy=".35em"
      x="0"
      y="-1000"
      style="fill: rgb(68, 68, 68)"
    >
      <tspan x="0" y="-1000" dy="0.35em" />
    </text>
  </g>
  <g class="venn-area venn-intersection" data-venn-sets="3_7">
    <path d="M 0 0" style="fill-opacity: 0" />
    <text
      class="label"
      text-anchor="middle"
      dy=".35em"
      x="0"
      y="-1000"
      style="fill: rgb(68, 68, 68)"
    >
      <tspan x="0" y="-1000" dy="0.35em" />
    </text>
  </g>
  <g class="venn-area venn-intersection" data-venn-sets="3_8">
    <path d="M 0 0" style="fill-opacity: 0" />
    <text
      class="label"
      text-anchor="middle"
      dy=".35em"
      x="0"
      y="-1000"
      style="fill: rgb(68, 68, 68)"
    >
      <tspan x="0" y="-1000" dy="0.35em" />
    </text>
  </g>
  <g class="venn-area venn-intersection" data-venn-sets="3_9">
    <path d="M 0 0" style="fill-opacity: 0" />
    <text
      class="label"
      text-anchor="middle"
      dy=".35em"
      x="0"
      y="-1000"
      style="fill: rgb(68, 68, 68)"
    >
      <tspan x="0" y="-1000" dy="0.35em" />
    </text>
  </g>
  <g class="venn-area venn-intersection" data-venn-sets="3_10">
    <path d="M 0 0" style="fill-opacity: 0" />
    <text
      class="label"
      text-anchor="middle"
      dy=".35em"
      x="0"
      y="-1000"
      style="fill: rgb(68, 68, 68)"
    >
      <tspan x="0" y="-1000" dy="0.35em" />
    </text>
  </g>
  <g class="venn-area venn-intersection" data-venn-sets="3_11">
    <path d="M 0 0" style="fill-opacity: 0" />
    <text
      class="label"
      text-anchor="middle"
      dy=".35em"
      x="0"
      y="-1000"
      style="fill: rgb(68, 68, 68)"
    >
      <tspan x="0" y="-1000" dy="0.35em" />
    </text>
  </g>
  <g class="venn-area venn-intersection" data-venn-sets="3_12">
    <path
      d="&#10;M 362.0116144084302 228.93489215238674 &#10;A 37.06746580529859 37.06746580529859 0 0 1 425.3482842123342 258.9507725448842 &#10;A 66.34779582835147 66.34779582835147 0 0 1 362.0116144084302 228.93489215238674"
      style="fill-opacity: 0"
    />
    <text
      class="label"
      text-anchor="middle"
      dy=".35em"
      x="401"
      y="239"
      style="fill: rgb(68, 68, 68)"
    >
      <tspan x="401" y="239" dy="0.35em" />
    </text>
  </g>
  <g class="venn-area venn-intersection" data-venn-sets="4_5">
    <path
      d="&#10;M 345.9415649621805 111.4858307923791 &#10;A 55.68454243154199 55.68454243154199 0 0 1 374.62072151036415 67.10262194207131 &#10;A 50.76713589120136 50.76713589120136 0 0 1 345.9415649621805 111.4858307923791"
      style="fill-opacity: 0"
    />
    <text
      class="label"
      text-anchor="middle"
      dy=".35em"
      x="360"
      y="89"
      style="fill: rgb(68, 68, 68)"
    >
      <tspan x="360" y="89" dy="0.35em" />
    </text>
  </g>
  <g class="venn-area venn-intersection" data-venn-sets="4_6">
    <path d="M 0 0" style="fill-opacity: 0" />
    <text
      class="label"
      text-anchor="middle"
      dy=".35em"
      x="0"
      y="-1000"
      style="fill: rgb(68, 68, 68)"
    >
      <tspan x="0" y="-1000" dy="0.35em" />
    </text>
  </g>
  <g class="venn-area venn-intersection" data-venn-sets="4_7">
    <path d="M 0 0" style="fill-opacity: 0" />
    <text
      class="label"
      text-anchor="middle"
      dy=".35em"
      x="0"
      y="-1000"
      style="fill: rgb(68, 68, 68)"
    >
      <tspan x="0" y="-1000" dy="0.35em" />
    </text>
  </g>
  <g class="venn-area venn-intersection" data-venn-sets="4_8">
    <path d="M 0 0" style="fill-opacity: 0" />
    <text
      class="label"
      text-anchor="middle"
      dy=".35em"
      x="0"
      y="-1000"
      style="fill: rgb(68, 68, 68)"
    >
      <tspan x="0" y="-1000" dy="0.35em" />
    </text>
  </g>
  <g class="venn-area venn-intersection" data-venn-sets="4_9">
    <path d="M 0 0" style="fill-opacity: 0" />
    <text
      class="label"
      text-anchor="middle"
      dy=".35em"
      x="0"
      y="-1000"
      style="fill: rgb(68, 68, 68)"
    >
      <tspan x="0" y="-1000" dy="0.35em" />
    </text>
  </g>
  <g class="venn-area venn-intersection" data-venn-sets="4_10">
    <path d="M 0 0" style="fill-opacity: 0" />
    <text
      class="label"
      text-anchor="middle"
      dy=".35em"
      x="0"
      y="-1000"
      style="fill: rgb(68, 68, 68)"
    >
      <tspan x="0" y="-1000" dy="0.35em" />
    </text>
  </g>
  <g class="venn-area venn-intersection" data-venn-sets="4_11">
    <path d="M 0 0" style="fill-opacity: 0" />
    <text
      class="label"
      text-anchor="middle"
      dy=".35em"
      x="0"
      y="-1000"
      style="fill: rgb(68, 68, 68)"
    >
      <tspan x="0" y="-1000" dy="0.35em" />
    </text>
  </g>
  <g class="venn-area venn-intersection" data-venn-sets="4_12">
    <path d="M 0 0" style="fill-opacity: 0" />
    <text
      class="label"
      text-anchor="middle"
      dy=".35em"
      x="0"
      y="-1000"
      style="fill: rgb(68, 68, 68)"
    >
      <tspan x="0" y="-1000" dy="0.35em" />
    </text>
  </g>
  <g class="venn-area venn-intersection" data-venn-sets="5_6">
    <path d="M 0 0" style="fill-opacity: 0" />
    <text
      class="label"
      text-anchor="middle"
      dy=".35em"
      x="0"
      y="-1000"
      style="fill: rgb(68, 68, 68)"
    >
      <tspan x="0" y="-1000" dy="0.35em" />
    </text>
  </g>
  <g class="venn-area venn-intersection" data-venn-sets="5_7">
    <path d="M 0 0" style="fill-opacity: 0" />
    <text
      class="label"
      text-anchor="middle"
      dy=".35em"
      x="0"
      y="-1000"
      style="fill: rgb(68, 68, 68)"
    >
      <tspan x="0" y="-1000" dy="0.35em" />
    </text>
  </g>
  <g class="venn-area venn-intersection" data-venn-sets="5_8">
    <path d="M 0 0" style="fill-opacity: 0" />
    <text
      class="label"
      text-anchor="middle"
      dy=".35em"
      x="0"
      y="-1000"
      style="fill: rgb(68, 68, 68)"
    >
      <tspan x="0" y="-1000" dy="0.35em" />
    </text>
  </g>
  <g class="venn-area venn-intersection" data-venn-sets="5_9">
    <path d="M 0 0" style="fill-opacity: 0" />
    <text
      class="label"
      text-anchor="middle"
      dy=".35em"
      x="0"
      y="-1000"
      style="fill: rgb(68, 68, 68)"
    >
      <tspan x="0" y="-1000" dy="0.35em" />
    </text>
  </g>
  <g class="venn-area venn-intersection" data-venn-sets="5_10">
    <path d="M 0 0" style="fill-opacity: 0" />
    <text
      class="label"
      text-anchor="middle"
      dy=".35em"
      x="0"
      y="-1000"
      style="fill: rgb(68, 68, 68)"
    >
      <tspan x="0" y="-1000" dy="0.35em" />
    </text>
  </g>
  <g class="venn-area venn-intersection" data-venn-sets="5_11">
    <path
      d="&#10;M 274.7506173291585 52.942358071408734 &#10;A 42.201381307260526 42.201381307260526 0 0 1 285.0653330407138 98.49954057734854 &#10;A 50.76713589120136 50.76713589120136 0 0 1 274.7506173291585 52.942358071408734"
      style="fill-opacity: 0"
    />
    <text
      class="label"
      text-anchor="middle"
      dy=".35em"
      x="280"
      y="74"
      style="fill: rgb(68, 68, 68)"
    >
      <tspan x="280" y="74" dy="0.35em" />
    </text>
  </g>
  <g class="venn-area venn-intersection" data-venn-sets="5_12">
    <path d="M 0 0" style="fill-opacity: 0" />
    <text
      class="label"
      text-anchor="middle"
      dy=".35em"
      x="0"
      y="-1000"
      style="fill: rgb(68, 68, 68)"
    >
      <tspan x="0" y="-1000" dy="0.35em" />
    </text>
  </g>
  <g class="venn-area venn-intersection" data-venn-sets="6_7">
    <path d="M 0 0" style="fill-opacity: 0" />
    <text
      class="label"
      text-anchor="middle"
      dy=".35em"
      x="0"
      y="-1000"
      style="fill: rgb(68, 68, 68)"
    >
      <tspan x="0" y="-1000" dy="0.35em" />
    </text>
  </g>
  <g class="venn-area venn-intersection" data-venn-sets="6_8">
    <path d="M 0 0" style="fill-opacity: 0" />
    <text
      class="label"
      text-anchor="middle"
      dy=".35em"
      x="0"
      y="-1000"
      style="fill: rgb(68, 68, 68)"
    >
      <tspan x="0" y="-1000" dy="0.35em" />
    </text>
  </g>
  <g class="venn-area venn-intersection" data-venn-sets="6_9">
    <path d="M 0 0" style="fill-opacity: 0" />
    <text
      class="label"
      text-anchor="middle"
      dy=".35em"
      x="0"
      y="-1000"
      style="fill: rgb(68, 68, 68)"
    >
      <tspan x="0" y="-1000" dy="0.35em" />
    </text>
  </g>
  <g class="venn-area venn-intersection" data-venn-sets="6_10">
    <path d="M 0 0" style="fill-opacity: 0" />
    <text
      class="label"
      text-anchor="middle"
      dy=".35em"
      x="0"
      y="-1000"
      style="fill: rgb(68, 68, 68)"
    >
      <tspan x="0" y="-1000" dy="0.35em" />
    </text>
  </g>
  <g class="venn-area venn-intersection" data-venn-sets="6_11">
    <path d="M 0 0" style="fill-opacity: 0" />
    <text
      class="label"
      text-anchor="middle"
      dy=".35em"
      x="0"
      y="-1000"
      style="fill: rgb(68, 68, 68)"
    >
      <tspan x="0" y="-1000" dy="0.35em" />
    </text>
  </g>
  <g class="venn-area venn-intersection" data-venn-sets="6_12">
    <path
      d="&#10;M 351.7969804035961 259.98844078995245 &#10;A 41.94612867551688 41.94612867551688 0 0 1 367.18739227319963 285.17951385664895 &#10;A 37.06746580529859 37.06746580529859 0 0 1 351.7969804035961 259.98844078995245"
      style="fill-opacity: 0"
    />
    <text
      class="label"
      text-anchor="middle"
      dy=".35em"
      x="361"
      y="275"
      style="fill: rgb(68, 68, 68)"
    >
      <tspan x="361" y="275" dy="0.35em" />
    </text>
  </g>
  <g class="venn-area venn-intersection" data-venn-sets="7_8">
    <path
      d="&#10;M 142.5927565247102 105.09678223128185 &#10;A 25.381163933035925 25.381163933035925 0 0 1 157.44796099289627 149.96231280588074 &#10;A 38.825589321342484 38.825589321342484 0 0 1 142.5927565247102 105.09678223128185"
      style="fill-opacity: 0"
    />
    <text
      class="label"
      text-anchor="middle"
      dy=".35em"
      x="153"
      y="126"
      style="fill: rgb(68, 68, 68)"
    >
      <tspan x="153" y="126" dy="0.35em" />
    </text>
  </g>
  <g class="venn-area venn-intersection" data-venn-sets="7_9">
    <path d="M 0 0" style="fill-opacity: 0" />
    <text
      class="label"
      text-anchor="middle"
      dy=".35em"
      x="0"
      y="-1000"
      style="fill: rgb(68, 68, 68)"
    >
      <tspan x="0" y="-1000" dy="0.35em" />
    </text>
  </g>
  <g class="venn-area venn-intersection" data-venn-sets="7_10">
    <path d="M 0 0" style="fill-opacity: 0" />
    <text
      class="label"
      text-anchor="middle"
      dy=".35em"
      x="0"
      y="-1000"
      style="fill: rgb(68, 68, 68)"
    >
      <tspan x="0" y="-1000" dy="0.35em" />
    </text>
  </g>
  <g class="venn-area venn-intersection" data-venn-sets="7_11">
    <path
      d="&#10;M 203.62755223922954 87.61553509969836 &#10;A 38.825589321342484 38.825589321342484 0 0 1 218.01350683852309 115.39677377507239 &#10;A 42.201381307260526 42.201381307260526 0 0 1 203.62755223922954 87.61553509969836"
      style="fill-opacity: 0"
    />
    <text
      class="label"
      text-anchor="middle"
      dy=".35em"
      x="210"
      y="101"
      style="fill: rgb(68, 68, 68)"
    >
      <tspan x="210" y="101" dy="0.35em" />
    </text>
  </g>
  <g class="venn-area venn-intersection" data-venn-sets="7_12">
    <path d="M 0 0" style="fill-opacity: 0" />
    <text
      class="label"
      text-anchor="middle"
      dy=".35em"
      x="0"
      y="-1000"
      style="fill: rgb(68, 68, 68)"
    >
      <tspan x="0" y="-1000" dy="0.35em" />
    </text>
  </g>
  <g class="venn-area venn-intersection" data-venn-sets="8_9">
    <path d="M 0 0" style="fill-opacity: 0" />
    <text
      class="label"
      text-anchor="middle"
      dy=".35em"
      x="0"
      y="-1000"
      style="fill: rgb(68, 68, 68)"
    >
      <tspan x="0" y="-1000" dy="0.35em" />
    </text>
  </g>
  <g class="venn-area venn-intersection" data-venn-sets="8_10">
    <path d="M 0 0" style="fill-opacity: 0" />
    <text
      class="label"
      text-anchor="middle"
      dy=".35em"
      x="0"
      y="-1000"
      style="fill: rgb(68, 68, 68)"
    >
      <tspan x="0" y="-1000" dy="0.35em" />
    </text>
  </g>
  <g class="venn-area venn-intersection" data-venn-sets="8_11">
    <path d="M 0 0" style="fill-opacity: 0" />
    <text
      class="label"
      text-anchor="middle"
      dy=".35em"
      x="0"
      y="-1000"
      style="fill: rgb(68, 68, 68)"
    >
      <tspan x="0" y="-1000" dy="0.35em" />
    </text>
  </g>
  <g class="venn-area venn-intersection" data-venn-sets="8_12">
    <path d="M 0 0" style="fill-opacity: 0" />
    <text
      class="label"
      text-anchor="middle"
      dy=".35em"
      x="0"
      y="-1000"
      style="fill: rgb(68, 68, 68)"
    >
      <tspan x="0" y="-1000" dy="0.35em" />
    </text>
  </g>
  <g class="venn-area venn-intersection" data-venn-sets="9_10">
    <path
      d="&#10;M 186.38544299487992 276.84504335949515 &#10;A 27.926885072384156 27.926885072384156 0 0 1 197.66369832499598 264.37312939054885 &#10;A 25.942334111841053 25.942334111841053 0 0 1 186.38544299487992 276.84504335949515"
      style="fill-opacity: 0"
    />
    <text
      class="label"
      text-anchor="middle"
      dy=".35em"
      x="192"
      y="270"
      style="fill: rgb(68, 68, 68)"
    >
      <tspan x="192" y="270" dy="0.35em" />
    </text>
  </g>
  <g class="venn-area venn-intersection" data-venn-sets="9_11">
    <path d="M 0 0" style="fill-opacity: 0" />
    <text
      class="label"
      text-anchor="middle"
      dy=".35em"
      x="0"
      y="-1000"
      style="fill: rgb(68, 68, 68)"
    >
      <tspan x="0" y="-1000" dy="0.35em" />
    </text>
  </g>
  <g class="venn-area venn-intersection" data-venn-sets="9_12">
    <path d="M 0 0" style="fill-opacity: 0" />
    <text
      class="label"
      text-anchor="middle"
      dy=".35em"
      x="0"
      y="-1000"
      style="fill: rgb(68, 68, 68)"
    >
      <tspan x="0" y="-1000" dy="0.35em" />
    </text>
  </g>
  <g class="venn-area venn-intersection" data-venn-sets="10_11">
    <path d="M 0 0" style="fill-opacity: 0" />
    <text
      class="label"
      text-anchor="middle"
      dy=".35em"
      x="0"
      y="-1000"
      style="fill: rgb(68, 68, 68)"
    >
      <tspan x="0" y="-1000" dy="0.35em" />
    </text>
  </g>
  <g class="venn-area venn-intersection" data-venn-sets="10_12">
    <path d="M 0 0" style="fill-opacity: 0" />
    <text
      class="label"
      text-anchor="middle"
      dy=".35em"
      x="0"
      y="-1000"
      style="fill: rgb(68, 68, 68)"
    >
      <tspan x="0" y="-1000" dy="0.35em" />
    </text>
  </g>
  <g class="venn-area venn-intersection" data-venn-sets="11_12">
    <path d="M 0 0" style="fill-opacity: 0" />
    <text
      class="label"
      text-anchor="middle"
      dy=".35em"
      x="0"
      y="-1000"
      style="fill: rgb(68, 68, 68)"
    >
      <tspan x="0" y="-1000" dy="0.35em" />
    </text>
  </g>
  <g class="venn-area venn-intersection" data-venn-sets="0_1_6">
    <path
      d="&#10;M 285.8129274413635 305.1171001511882 &#10;A 41.94612867551688 41.94612867551688 0 0 1 291.05067084157304 269.83899429219525 &#10;A 30.243049195978898 30.243049195978898 0 0 1 286.89037874536956 305.0656855954636 &#10;A 112.18720481600093 112.18720481600093 0 0 1 285.8129274413635 305.1171001511882"
      style="fill-opacity: 0"
    />
    <text
      class="label"
      text-anchor="middle"
      dy=".35em"
      x="289"
      y="288"
      style="fill: rgb(68, 68, 68)"
    >
      <tspan x="289" y="288" dy="0.35em" />
    </text>
  </g>
  <g class="venn-area venn-intersection" data-venn-sets="0_1_9">
    <path
      d="&#10;M 236.06413756699106 274.6851572198121 &#10;A 27.926885072384156 27.926885072384156 0 0 1 238.42510869552052 296.8259378353212 &#10;A 112.18720481600093 112.18720481600093 0 0 1 236.67666845268596 296.09134418974566 &#10;A 30.243049195978898 30.243049195978898 0 0 1 236.06413756699106 274.6851572198121"
      style="fill-opacity: 0"
    />
    <text
      class="label"
      text-anchor="middle"
      dy=".35em"
      x="237"
      y="286"
      style="fill: rgb(68, 68, 68)"
    >
      <tspan x="237" y="286" dy="0.35em" />
    </text>
  </g>
  <g class="venn-area venn-intersection" data-venn-sets="0_2_7">
    <path
      d="&#10;M 177.42976028279335 149.92535822734772 &#10;A 35.56420599736866 35.56420599736866 0 0 1 186.21335722829565 156.04523702091785 &#10;A 38.825589321342484 38.825589321342484 0 0 1 174.95560629464327 156.43206856075736 &#10;A 112.18720481600093 112.18720481600093 0 0 1 177.42976028279335 149.92535822734772"
      style="fill-opacity: 0"
    />
    <text
      class="label"
      text-anchor="middle"
      dy=".35em"
      x="178"
      y="153"
      style="fill: rgb(68, 68, 68)"
    >
      <tspan x="178" y="153" dy="0.35em" />
    </text>
  </g>
  <g class="venn-area venn-intersection" data-venn-sets="0_3_4">
    <path
      d="&#10;M 362.7802842875804 155.96371750686677 &#10;A 66.34779582835147 66.34779582835147 0 0 1 379.3170661746961 138.9905714122866 &#10;A 112.18720481600093 112.18720481600093 0 0 1 390.921136762629 170.5769440628554 &#10;A 55.68454243154199 55.68454243154199 0 0 1 362.7802842875804 155.96371750686677"
      style="fill-opacity: 0"
    />
    <text
      class="label"
      text-anchor="middle"
      dy=".35em"
      x="376"
      y="154"
      style="fill: rgb(68, 68, 68)"
    >
      <tspan x="376" y="154" dy="0.35em" />
    </text>
  </g>
  <g class="venn-area venn-intersection" data-venn-sets="0_3_12">
    <path
      d="&#10;M 362.0116144084302 228.93489215238674 &#10;A 37.06746580529859 37.06746580529859 0 0 1 390.41480854539367 217.8387549262629 &#10;A 112.18720481600093 112.18720481600093 0 0 1 379.3170661746961 247.07541759503692 &#10;A 66.34779582835147 66.34779582835147 0 0 1 362.0116144084302 228.93489215238674"
      style="fill-opacity: 0"
    />
    <text
      class="label"
      text-anchor="middle"
      dy=".35em"
      x="375"
      y="230"
      style="fill: rgb(68, 68, 68)"
    >
      <tspan x="375" y="230" dy="0.35em" />
    </text>
  </g>
  <g class="venn-area venn-intersection" data-venn-sets="0_4_5">
    <path
      d="&#10;M 347.380314427004 102.58851725478539 &#10;A 112.18720481600093 112.18720481600093 0 0 1 353.2276914034123 107.18568029792037 &#10;A 50.76713589120136 50.76713589120136 0 0 1 345.9415649621805 111.4858307923791 &#10;A 55.68454243154199 55.68454243154199 0 0 1 347.380314427004 102.58851725478539"
      style="fill-opacity: 0"
    />
    <text
      class="label"
      text-anchor="middle"
      dy=".35em"
      x="349"
      y="106"
      style="fill: rgb(68, 68, 68)"
    >
      <tspan x="349" y="106" dy="0.35em" />
    </text>
  </g>
  <g class="venn-area venn-intersection" data-venn-sets="0_5_11">
    <path
      d="&#10;M 275.4382066282066 80.98395745046507 &#10;A 112.18720481600093 112.18720481600093 0 0 1 287.75724392806404 81.04921142337707 &#10;A 42.201381307260526 42.201381307260526 0 0 1 285.0653330407138 98.49954057734854 &#10;A 50.76713589120136 50.76713589120136 0 0 1 275.4382066282066 80.98395745046507"
      style="fill-opacity: 0"
    />
    <text
      class="label"
      text-anchor="middle"
      dy=".35em"
      x="282"
      y="85"
      style="fill: rgb(68, 68, 68)"
    >
      <tspan x="282" y="85" dy="0.35em" />
    </text>
  </g>
  <g class="venn-area venn-intersection" data-venn-sets="0_6_12">
    <path
      d="&#10;M 351.7969804035961 259.98844078995245 &#10;A 41.94612867551688 41.94612867551688 0 0 1 361.6689458442629 271.0021921607362 &#10;A 112.18720481600093 112.18720481600093 0 0 1 357.47090397174424 275.1234246869834 &#10;A 37.06746580529859 37.06746580529859 0 0 1 351.7969804035961 259.98844078995245"
      style="fill-opacity: 0"
    />
    <text
      class="label"
      text-anchor="middle"
      dy=".35em"
      x="358"
      y="270"
      style="fill: rgb(68, 68, 68)"
    >
      <tspan x="358" y="270" dy="0.35em" />
    </text>
  </g>
  <g class="venn-area venn-intersection" data-venn-sets="0_7_11">
    <path
      d="&#10;M 210.0294404951751 106.15073089424126 &#10;A 112.18720481600093 112.18720481600093 0 0 1 214.8860036698516 102.40005335432451 &#10;A 38.825589321342484 38.825589321342484 0 0 1 218.01350683852309 115.39677377507239 &#10;A 42.201381307260526 42.201381307260526 0 0 1 210.0294404951751 106.15073089424126"
      style="fill-opacity: 0"
    />
    <text
      class="label"
      text-anchor="middle"
      dy=".35em"
      x="213"
      y="106"
      style="fill: rgb(68, 68, 68)"
    >
      <tspan x="213" y="106" dy="0.35em" />
    </text>
  </g>
  <g class="venn-area venn-intersection" data-venn-sets="0_9_10">
    <path
      d="&#10;M 195.56157189318088 265.7344145882111 &#10;A 27.926885072384156 27.926885072384156 0 0 1 197.66369832499598 264.37312939054885 &#10;A 25.942334111841053 25.942334111841053 0 0 1 196.4735252762916 266.792770319035 &#10;A 112.18720481600093 112.18720481600093 0 0 1 195.56157189318088 265.7344145882111"
      style="fill-opacity: 0"
    />
    <text
      class="label"
      text-anchor="middle"
      dy=".35em"
      x="196"
      y="265"
      style="fill: rgb(68, 68, 68)"
    >
      <tspan x="196" y="265" dy="0.35em" />
    </text>
  </g>
  <g class="venn-area venn-intersection" data-venn-sets="2_7_8">
    <path
      d="&#10;M 153.8073694368041 147.16059557164215 &#10;A 35.56420599736866 35.56420599736866 0 0 1 161.0635866970172 146.27476093255345 &#10;A 25.381163933035925 25.381163933035925 0 0 1 157.44796099289627 149.96231280588074 &#10;A 38.825589321342484 38.825589321342484 0 0 1 153.8073694368041 147.16059557164215"
      style="fill-opacity: 0"
    />
    <text
      class="label"
      text-anchor="middle"
      dy=".35em"
      x="157"
      y="148"
      style="fill: rgb(68, 68, 68)"
    >
      <tspan x="157" y="148" dy="0.35em" />
    </text>
  </g>
</svg>
