<!--
{
  "height": 350,
  "id": "venn-0",
  "width": 600
}
-->
<svg xmlns="http://www.w3.org/2000/svg" width="600" height="350">
  <g class="venn-area venn-circle" data-venn-sets="0">
    <path
      d="&#10;M 334.1905456824024 141.86517531430786 &#10;m -58.77192980325632 0 &#10;a 58.77192980325632 58.77192980325632 0 1 0 117.54385960651264 0 &#10;a 58.77192980325632 58.77192980325632 0 1 0 -117.54385960651264 0"
      style="fill-opacity: 0.25; fill: rgb(31, 119, 180)"
    />
    <text
      class="label"
      text-anchor="middle"
      dy=".35em"
      x="325"
      y="109"
      style="fill: rgb(31, 119, 180)"
    >
      <tspan x="325" y="109" dy="0.35em">SE 28</tspan>
    </text>
  </g>
  <g class="venn-area venn-circle" data-venn-sets="1">
    <path
      d="&#10;M 238.82024202906345 80.70901510446349 &#10;m -65.70901510446349 0 &#10;a 65.70901510446349 65.70901510446349 0 1 0 131.41803020892698 0 &#10;a 65.70901510446349 65.70901510446349 0 1 0 -131.41803020892698 0"
      style="fill-opacity: 0.25; fill: rgb(255, 127, 14)"
    />
    <text
      class="label"
      text-anchor="middle"
      dy=".35em"
      x="244"
      y="64"
      style="fill: rgb(255, 127, 14)"
    >
      <tspan x="244" y="64" dy="0.35em">Treat 35</tspan>
    </text>
  </g>
  <g class="venn-area venn-circle" data-venn-sets="2">
    <path
      d="&#10;M 190.26638011989735 219.57422125912007 &#10;m -115.42577874087992 0 &#10;a 115.42577874087992 115.42577874087992 0 1 0 230.85155748175984 0 &#10;a 115.42577874087992 115.42577874087992 0 1 0 -230.85155748175984 0"
      style="fill-opacity: 0.25; fill: rgb(44, 160, 44)"
    />
    <text
      class="label"
      text-anchor="middle"
      dy=".35em"
      x="184"
      y="235"
      style="fill: rgb(44, 160, 44)"
    >
      <tspan x="184" y="235" dy="0.35em">Anti-CCP 108</tspan>
    </text>
  </g>
  <g class="venn-area venn-circle" data-venn-sets="3">
    <path
      d="&#10;M 410.80737139229694 219.57422125912012 &#10;m -114.3520272286857 0 &#10;a 114.3520272286857 114.3520272286857 0 1 0 228.7040544573714 0 &#10;a 114.3520272286857 114.3520272286857 0 1 0 -228.7040544573714 0"
      style="fill-opacity: 0.25; fill: rgb(214, 39, 40)"
    />
    <text
      class="label"
      text-anchor="middle"
      dy=".35em"
      x="433"
      y="242"
      style="fill: rgb(214, 39, 40)"
    >
      <tspan x="433" y="242" dy="0.35em">DAS28 106</tspan>
    </text>
  </g>
  <g class="venn-area venn-intersection" data-venn-sets="0_1">
    <path
      d="&#10;M 275.8196483184733 135.01112003815638 &#10;A 58.77192980325632 58.77192980325632 0 0 1 303.60733937311767 91.67745545533622 &#10;A 65.70901510446349 65.70901510446349 0 0 1 275.8196483184733 135.01112003815638"
      style="fill-opacity: 0"
    />
    <text
      class="label"
      text-anchor="middle"
      dy=".35em"
      x="289"
      y="113"
      style="fill: rgb(68, 68, 68)"
    >
      <tspan x="289" y="113" dy="0.35em">1</tspan>
    </text>
  </g>
  <g class="venn-area venn-intersection" data-venn-sets="0_2">
    <path
      d="&#10;M 275.41900874601214 141.6502824726243 &#10;A 115.42577874087992 115.42577874087992 0 0 1 302.13068176762425 191.12271137291307 &#10;A 58.77192980325632 58.77192980325632 0 0 1 275.41900874601214 141.6502824726243"
      style="fill-opacity: 0"
    />
    <text
      class="label"
      text-anchor="middle"
      dy=".35em"
      x="287"
      y="167"
      style="fill: rgb(68, 68, 68)"
    >
      <tspan x="287" y="167" dy="0.35em">1</tspan>
    </text>
  </g>
  <g class="venn-area venn-intersection" data-venn-sets="0_3">
    <path
      d="&#10;M 300.36526090135334 189.92752900490257 &#10;A 114.3520272286857 114.3520272286857 0 0 1 382.72684848335217 108.72355430366015 &#10;A 58.77192980325632 58.77192980325632 0 0 1 300.36526090135334 189.92752900490257"
      style="fill-opacity: 0"
    />
    <text
      class="label"
      text-anchor="middle"
      dy=".35em"
      x="352"
      y="160"
      style="fill: rgb(68, 68, 68)"
    >
      <tspan x="352" y="160" dy="0.35em">14</tspan>
    </text>
  </g>
  <g class="venn-area venn-intersection" data-venn-sets="1_2">
    <path
      d="&#10;M 177.7003908556983 104.83448833390096 &#10;A 115.42577874087992 115.42577874087992 0 0 1 271.5908530077636 137.6630467622953 &#10;A 65.70901510446349 65.70901510446349 0 0 1 177.7003908556983 104.83448833390096"
      style="fill-opacity: 0"
    />
    <text
      class="label"
      text-anchor="middle"
      dy=".35em"
      x="222"
      y="126"
      style="fill: rgb(68, 68, 68)"
    >
      <tspan x="222" y="126" dy="0.35em">6</tspan>
    </text>
  </g>
  <g class="venn-area venn-intersection" data-venn-sets="1_3">
    <path d="M 0 0" style="fill-opacity: 0" />
    <text
      class="label"
      text-anchor="middle"
      dy=".35em"
      x="0"
      y="-1000"
      style="fill: rgb(68, 68, 68)"
    >
      <tspan x="0" y="-1000" dy="0.35em" />
    </text>
  </g>
  <g class="venn-area venn-intersection" data-venn-sets="2_3">
    <path
      d="&#10;M 301.09623722718925 251.82097569295138 &#10;A 114.3520272286857 114.3520272286857 0 0 1 301.09623722718925 187.3274668252888 &#10;A 115.42577874087992 115.42577874087992 0 0 1 301.09623722718925 251.82097569295138"
      style="fill-opacity: 0"
    />
    <text
      class="label"
      text-anchor="middle"
      dy=".35em"
      x="301"
      y="219"
      style="fill: rgb(68, 68, 68)"
    >
      <tspan x="301" y="219" dy="0.35em">1</tspan>
    </text>
  </g>
  <g class="venn-area venn-intersection" data-venn-sets="0_2_3">
    <path
      d="&#10;M 301.09623722718925 187.3274668252888 &#10;A 115.42577874087992 115.42577874087992 0 0 1 302.13068176762425 191.12271137291307 &#10;A 58.77192980325632 58.77192980325632 0 0 1 300.36526090135334 189.92752900490257 &#10;A 114.3520272286857 114.3520272286857 0 0 1 301.09623722718925 187.3274668252888"
      style="fill-opacity: 0"
    />
    <text
      class="label"
      text-anchor="middle"
      dy=".35em"
      x="301"
      y="189"
      style="fill: rgb(68, 68, 68)"
    >
      <tspan x="301" y="189" dy="0.35em">1</tspan>
    </text>
  </g>
  <g class="venn-area venn-intersection" data-venn-sets="0_1_2">
    <path d="M 0 0" style="fill-opacity: 0" />
    <text
      class="label"
      text-anchor="middle"
      dy=".35em"
      x="0"
      y="-1000"
      style="fill: rgb(68, 68, 68)"
    >
      <tspan x="0" y="-1000" dy="0.35em" />
    </text>
  </g>
  <g class="venn-area venn-intersection" data-venn-sets="0_1_3">
    <path d="M 0 0" style="fill-opacity: 0" />
    <text
      class="label"
      text-anchor="middle"
      dy=".35em"
      x="0"
      y="-1000"
      style="fill: rgb(68, 68, 68)"
    >
      <tspan x="0" y="-1000" dy="0.35em" />
    </text>
  </g>
  <g class="venn-area venn-intersection" data-venn-sets="1_2_3">
    <path d="M 0 0" style="fill-opacity: 0" />
    <text
      class="label"
      text-anchor="middle"
      dy=".35em"
      x="0"
      y="-1000"
      style="fill: rgb(68, 68, 68)"
    >
      <tspan x="0" y="-1000" dy="0.35em" />
    </text>
  </g>
  <g class="venn-area venn-intersection" data-venn-sets="0_1_2_3">
    <path d="M 0 0" style="fill-opacity: 0" />
    <text
      class="label"
      text-anchor="middle"
      dy=".35em"
      x="0"
      y="-1000"
      style="fill: rgb(68, 68, 68)"
    >
      <tspan x="0" y="-1000" dy="0.35em" />
    </text>
  </g>
</svg>
